PathFileType  4	(X/Y/Z) C:\Users\wagnerel85475\Documents\Thesis\opencap-core\Data\3375ffbc-daeb-4a43-b4f7-ac9899cd4c71\MarkerData\PreAugmentation
DataRate	CameraRate	NumFrames	NumMarkers	Units	OrigDataRate	OrigDataStartFrame	OrigNumFrames
60.0	60.0	15	20	m	60.0	449	897
Frame#	Time	Neck			RShoulder			RElbow			RWrist			LShoulder			LElbow			LWrist			midHip			RHip			RKnee			RAnkle			LHip			LKnee			LAnkle			LBigToe			LSmallToe			LHeel			RBigToe			RSmallToe			RHeel			
		X1	Y1	Z1	X2	Y2	Z2	X3	Y3	Z3	X4	Y4	Z4	X5	Y5	Z5	X6	Y6	Z6	X7	Y7	Z7	X8	Y8	Z8	X9	Y9	Z9	X10	Y10	Z10	X11	Y11	Z11	X12	Y12	Z12	X13	Y13	Z13	X14	Y14	Z14	X15	Y15	Z15	X16	Y16	Z16	X17	Y17	Z17	X18	Y18	Z18	X19	Y19	Z19	X20	Y20	Z20	

449	7.4666667	0.9072600	0.6028800	-0.0811200	0.9087700	0.5983600	0.0933700	1.1508400	0.4369800	0.1731400	1.4606500	0.4793300	0.0183200	0.9332500	0.6043700	-0.2455300	1.2171200	0.3907500	-0.2939900	1.4375900	0.4588100	-0.1439700	0.4268600	0.2589300	-0.0940500	0.4470400	0.2487600	0.0092500	0.9216000	0.2543200	0.1550300	0.6134200	-0.1801300	0.1025700	0.4342100	0.2758500	-0.2163400	0.8820500	0.2795000	-0.3356000	0.6097300	-0.1799500	-0.2851300	0.8338900	-0.2155000	-0.3466700	0.7668900	-0.2284800	-0.3868200	0.5307900	-0.2366400	-0.2666300	0.7922800	-0.2286900	0.1895600	0.7329100	-0.2218600	0.2133700	0.5597600	-0.2269300	0.0790900
450	7.4833333	0.8911000	0.5889400	-0.0809500	0.9063600	0.5911100	0.0931700	1.1198100	0.4210300	0.1565800	1.4865500	0.4786800	0.0115800	0.9164200	0.5898900	-0.2457500	1.1434600	0.3918900	-0.2777900	1.4380200	0.4352500	-0.1444000	0.4406100	0.2420300	-0.1157500	0.4703300	0.2423900	-0.0037900	0.9131600	0.2455200	0.1526500	0.6131700	-0.1799000	0.1024200	0.4467100	0.2658600	-0.2287300	0.8900800	0.2825800	-0.3392300	0.6097000	-0.1871700	-0.2850700	0.8339200	-0.2156400	-0.3468900	0.7660600	-0.2288200	-0.3868200	0.5303700	-0.2366700	-0.2666300	0.7843500	-0.2313400	0.1939100	0.7331600	-0.2217700	0.2131600	0.5689100	-0.2206900	0.0736500
451	7.5000000	0.8915000	0.5677200	-0.0816500	0.9094800	0.5659300	0.0927900	1.0857500	0.4140900	0.1493400	1.4706700	0.4606800	0.0037900	0.9164900	0.5699600	-0.2467500	1.1409600	0.3720200	-0.2680200	1.4346500	0.4295400	-0.1419600	0.4288100	0.2346100	-0.1119800	0.4584400	0.2367600	0.0014000	0.9128300	0.2419300	0.1525900	0.6134300	-0.1799400	0.1025100	0.4433700	0.2480600	-0.2298700	0.8902800	0.2856000	-0.3389500	0.6095000	-0.1834500	-0.2843500	0.8341000	-0.2153200	-0.3466800	0.7752000	-0.2255200	-0.3829200	0.5402600	-0.2334700	-0.2627200	0.7936900	-0.2282600	0.1969400	0.7328000	-0.2218800	0.2134300	0.5687100	-0.2163300	0.0745100
452	7.5166667	0.8991200	0.5552000	-0.0848300	0.9139700	0.5567100	0.0888100	1.0759800	0.4086400	0.1467100	1.4534600	0.4305100	0.0347100	0.9249700	0.5564900	-0.2419400	1.1512600	0.3647600	-0.2744300	1.4475600	0.4011800	-0.1493600	0.4522000	0.2329500	-0.1209200	0.4849400	0.2377500	-0.0001200	0.9148300	0.2389200	0.1598200	0.6131400	-0.1798000	0.1024200	0.4458800	0.2451000	-0.2381700	0.8819200	0.2815500	-0.3350200	0.6092900	-0.1834700	-0.2844200	0.8338900	-0.2155500	-0.3468900	0.7660000	-0.2287900	-0.3868200	0.5397700	-0.2332200	-0.2627100	0.7939500	-0.2278100	0.1967200	0.7331200	-0.2217700	0.2131600	0.5592900	-0.2239000	0.0705700
453	7.5333333	0.8992800	0.5451000	-0.0846700	0.9159300	0.5467200	0.0892300	1.0936300	0.3841000	0.1521800	1.4328200	0.4223000	0.0375200	0.9177100	0.5379800	-0.2532900	1.1708100	0.3782200	-0.2694300	1.4541200	0.3974700	-0.1539400	0.4792800	0.2402100	-0.1259800	0.5083100	0.2406500	-0.0017700	0.9148000	0.2425200	0.1601400	0.6133100	-0.1799700	0.1024900	0.4848800	0.2495300	-0.2476500	0.8831400	0.2851200	-0.3421400	0.6094900	-0.1830500	-0.2842600	0.8337800	-0.2153300	-0.3466600	0.7667900	-0.2283700	-0.3868400	0.5406000	-0.2262900	-0.2614100	0.7938900	-0.2281800	0.1969600	0.7327400	-0.2217900	0.2134400	0.5596800	-0.2226300	0.0720100
454	7.5500000	0.8992800	0.5409300	-0.0849700	0.9067400	0.5452200	0.0932600	1.1036000	0.3726200	0.1577000	1.4470500	0.3991700	0.0377600	0.9249900	0.5348400	-0.2501800	1.1797000	0.3697600	-0.2673800	1.4582900	0.3906100	-0.1495600	0.4412600	0.2032400	-0.1157700	0.4667500	0.2016300	0.0006600	0.9237200	0.2440200	0.1623600	0.6128200	-0.1833800	0.1030100	0.4480900	0.2189300	-0.2285300	0.8822900	0.2890000	-0.3425700	0.6094100	-0.1832300	-0.2843200	0.8257700	-0.2184200	-0.3507200	0.7658700	-0.2287800	-0.3868500	0.5398400	-0.2297000	-0.2542500	0.7939900	-0.2278800	0.1967700	0.7329900	-0.2216800	0.2132100	0.5599600	-0.2226600	0.0717000
455	7.5666667	0.8994800	0.5377000	-0.0846400	0.8996900	0.5404000	0.0906400	1.1069300	0.3657900	0.1577200	1.4457300	0.3891000	0.0365400	0.9256500	0.5290400	-0.2498300	1.1737900	0.3647900	-0.2705300	1.4833400	0.3891700	-0.1500300	0.4509300	0.1907900	-0.1296200	0.4756200	0.1965300	-0.0041400	0.9152800	0.2412500	0.1589000	0.6132600	-0.1801600	0.1024100	0.4773100	0.2125300	-0.2420400	0.8823400	0.2882800	-0.3424700	0.6095300	-0.1831900	-0.2842000	0.8256000	-0.2182300	-0.3505200	0.7666600	-0.2284100	-0.3869100	0.5400800	-0.2298600	-0.2541500	0.7937600	-0.2283400	0.1970500	0.7326600	-0.2219300	0.2135000	0.5596200	-0.2224100	0.0719200
456	7.5833333	0.8995400	0.5334700	-0.0848800	0.9071100	0.5345300	0.0928400	1.1055900	0.3618600	0.1579200	1.4607400	0.3874300	0.0441000	0.9171400	0.5264200	-0.2461400	1.1859100	0.3567100	-0.2625200	1.4694700	0.3815100	-0.1491900	0.4319700	0.1815400	-0.1284400	0.4526500	0.1850200	-0.0026600	0.9239500	0.2496400	0.1614900	0.6131200	-0.1800200	0.1023300	0.4682600	0.1993000	-0.2459100	0.8825800	0.2866900	-0.3419900	0.6092100	-0.1832500	-0.2842400	0.8255200	-0.2184800	-0.3507200	0.7657600	-0.2287900	-0.3868600	0.5395800	-0.2297200	-0.2540800	0.7860000	-0.2348300	0.2006100	0.7328600	-0.2218900	0.2132400	0.5594300	-0.2194800	0.0710700
457	7.6000000	0.8920600	0.5182400	-0.0816100	0.9088700	0.5239400	0.0933600	1.0993800	0.3558800	0.1545600	1.4402800	0.3811000	0.0399500	0.9009600	0.5174700	-0.2389300	1.1805200	0.3508900	-0.2655400	1.4803400	0.3700000	-0.1555100	0.5005700	0.1997100	-0.1263400	0.5328700	0.2081600	0.0016300	0.9091800	0.2319100	0.1707500	0.6133600	-0.1801200	0.1023600	0.4972500	0.2015000	-0.2510800	0.8827500	0.2884800	-0.3424700	0.6097200	-0.1796600	-0.2848400	0.8255600	-0.2183200	-0.3505100	0.7576300	-0.2318300	-0.3833200	0.5401000	-0.2264700	-0.2534900	0.7940600	-0.2291200	0.1956300	0.7326500	-0.2217900	0.2134100	0.5681800	-0.2161900	0.0668100
458	7.6166667	0.8922600	0.5140800	-0.0819800	0.9079400	0.5164200	0.0924000	1.0933700	0.3488800	0.1537300	1.4538400	0.3789600	0.0411900	0.8919800	0.5111300	-0.2424700	1.1814700	0.3479500	-0.2672000	1.4789300	0.3628800	-0.1550800	0.5028200	0.1962200	-0.1174500	0.5227900	0.2086900	0.0150400	0.9079100	0.2243000	0.1627100	0.6030700	-0.1834600	0.0991800	0.4888700	0.1963800	-0.2377400	0.8823200	0.2826600	-0.3424300	0.6096100	-0.1796100	-0.2848900	0.8254900	-0.2185200	-0.3507500	0.7567700	-0.2321400	-0.3832700	0.5395800	-0.2224800	-0.2540800	0.7941300	-0.2287900	0.1954700	0.7328900	-0.2217100	0.2132200	0.5593600	-0.2193100	0.0710000
459	7.6333333	0.8921000	0.5110200	-0.0816600	0.9102300	0.5164800	0.0924900	1.0978700	0.3531800	0.1539600	1.4388700	0.3775100	0.0327600	0.8929200	0.5089200	-0.2426200	1.1748100	0.3458000	-0.2625200	1.4752300	0.3601600	-0.1524000	0.5001000	0.1955800	-0.1174500	0.5306000	0.2072800	0.0187900	0.9149000	0.2284500	0.1597100	0.6133300	-0.1801700	0.1023600	0.4874200	0.1951700	-0.2381700	0.8829400	0.2818900	-0.3423700	0.6096900	-0.1794800	-0.2848000	0.8169200	-0.2215600	-0.3468600	0.7575600	-0.2318200	-0.3832900	0.5401000	-0.2263400	-0.2534400	0.7938600	-0.2252700	0.1964600	0.7327400	-0.2217300	0.2135000	0.5588600	-0.2193200	0.0713900
460	7.6500000	0.8837000	0.5090400	-0.0850800	0.8978300	0.5153900	0.0900500	1.0864300	0.3502100	0.1510400	1.4416100	0.3759700	0.0420900	0.8922200	0.5077700	-0.2429600	1.1752700	0.3445200	-0.2639700	1.4742500	0.3700400	-0.1520800	0.5033900	0.1928400	-0.1262800	0.5304300	0.2027400	0.0021500	0.9080000	0.2243000	0.1628200	0.6131000	-0.1799900	0.1023200	0.4988700	0.1952700	-0.2505300	0.8905800	0.2886400	-0.3384000	0.6091000	-0.1759100	-0.2842700	0.8254700	-0.2185500	-0.3507400	0.7566300	-0.2321500	-0.3832700	0.5396100	-0.2223700	-0.2540000	0.7860300	-0.2278300	0.2005800	0.7329100	-0.2217800	0.2132100	0.5592900	-0.2192200	0.0711200
461	7.6666667	0.8840500	0.5128600	-0.0854300	0.9013500	0.5149300	0.0895000	1.1258700	0.3521600	0.1574200	1.4456600	0.3804600	0.0355800	0.9009400	0.5138500	-0.2462700	1.1601900	0.3431400	-0.2624000	1.4748100	0.3668600	-0.1522900	0.4713400	0.1882800	-0.1302400	0.4951700	0.1949700	-0.0049800	0.9151400	0.2311300	0.1593600	0.6131100	-0.1835600	0.1030700	0.4867100	0.1991800	-0.2470600	0.8907800	0.2878400	-0.3383800	0.6092000	-0.1758500	-0.2841900	0.8255300	-0.2183200	-0.3504600	0.7575700	-0.2318500	-0.3833200	0.5397700	-0.2226400	-0.2540400	0.7937400	-0.2253500	0.1964100	0.7327400	-0.2218000	0.2134900	0.5503000	-0.2252100	0.0765200
462	7.6833333	0.8838600	0.5199800	-0.0855500	0.8977700	0.5332400	0.0896100	1.0870800	0.3646200	0.1447900	1.4538400	0.3851600	0.0415300	0.9004300	0.5164100	-0.2468600	1.1837300	0.3422200	-0.2610500	1.4602800	0.3731600	-0.1437900	0.4533200	0.1828600	-0.1377700	0.4662000	0.1852300	-0.0079600	0.9041600	0.2504700	0.1646800	0.6133100	-0.1799600	0.1023400	0.4679700	0.1954700	-0.2464300	0.8820700	0.2858000	-0.3428500	0.6094900	-0.1796200	-0.2848700	0.8256100	-0.2185900	-0.3507500	0.7567600	-0.2322000	-0.3832400	0.5394400	-0.2225200	-0.2540500	0.7843000	-0.2313900	0.1939600	0.7329200	-0.2219500	0.2131700	0.5594500	-0.2191900	0.0710800
463	7.7000000	0.8909900	0.5361800	-0.0880700	0.8903800	0.5386600	0.0873600	1.0907500	0.3673600	0.1446300	1.4382100	0.3994600	0.0312100	0.9178200	0.5309300	-0.2457800	1.1800800	0.3522700	-0.2579100	1.4679900	0.3831400	-0.1408200	0.4503100	0.1892500	-0.1382600	0.4599100	0.1857200	-0.0129900	0.9218300	0.2374100	0.1555200	0.6030300	-0.1869400	0.0999600	0.4770200	0.2089800	-0.2509500	0.8827000	0.2856200	-0.3421300	0.6097100	-0.1793800	-0.2848100	0.8256400	-0.2183600	-0.3504400	0.7576800	-0.2318700	-0.3833000	0.5397800	-0.2226800	-0.2540800	0.7761100	-0.2347800	0.1986400	0.7324900	-0.2220900	0.2134500	0.5593300	-0.2221300	0.0720200
